<svg width="25" height="24" viewBox="0 0 25 24" fill="none" xmlns="http://www.w3.org/2000/svg">
<path d="M12.5 4.64C14.7534 4.64 16.2734 5.61334 17.14 6.42667L20.5267 3.12C18.4467 1.18667 15.74 0 12.5 0C7.8067 0 3.75336 2.69333 1.78003 6.61334L5.66003 9.62667C6.63337 6.73334 9.3267 4.64 12.5 4.64Z" fill="#EA4335"/>
<path d="M24.02 12.2667C24.02 11.28 23.94 10.56 23.7667 9.81332H12.5V14.2667H19.1133C18.98 15.3733 18.26 17.04 16.66 18.16L20.4467 21.0933C22.7133 19 24.02 15.92 24.02 12.2667Z" fill="#4285F4"/>
<path d="M5.67334 14.3734C5.42 13.6267 5.27334 12.8267 5.27334 12C5.27334 11.1734 5.42 10.3734 5.66 9.62669L1.78 6.61336C0.966667 8.24003 0.5 10.0667 0.5 12C0.5 13.9334 0.966667 15.76 1.78 17.3867L5.67334 14.3734Z" fill="#FBBC05"/>
<path d="M12.5 24C15.74 24 18.46 22.9333 20.4467 21.0933L16.66 18.16C15.6467 18.8667 14.2867 19.36 12.5 19.36C9.32667 19.36 6.63334 17.2667 5.67334 14.3733L1.79333 17.3867C3.76667 21.3067 7.80667 24 12.5 24Z" fill="#34A853"/>
</svg>
