<svg width="281" height="111" viewBox="0 0 281 111" fill="none" xmlns="http://www.w3.org/2000/svg">
<g style="mix-blend-mode:color-dodge">
<path fill-rule="evenodd" clip-rule="evenodd" d="M280.399 -10.3563H280.551V-10.6597H250.364V-40.8467H250.06V-10.6597H220.025V-40.8467H219.722V-10.6597H203.73C203.691 -10.6658 203.651 -10.6718 203.612 -10.6809C203.612 -10.6809 203.609 -10.6779 203.606 -10.6809C203.557 -10.687 203.506 -10.6961 203.451 -10.7052L203.342 -10.7234C203.214 -10.7446 203.081 -10.7659 202.941 -10.7902C202.92 -10.7902 202.899 -10.7962 202.878 -10.7993C202.729 -10.8235 202.577 -10.8478 202.417 -10.8751C202.383 -10.8812 202.347 -10.8872 202.313 -10.8933C202.177 -10.9145 202.037 -10.9388 201.892 -10.9631C201.892 -10.9631 201.886 -10.9631 201.88 -10.9661C201.658 -11.0025 201.424 -11.042 201.188 -11.0844C201.173 -11.0844 201.158 -11.0875 201.145 -11.0905C200.951 -11.1239 200.754 -11.1573 200.554 -11.1937C200.52 -11.1997 200.487 -11.2058 200.454 -11.2119C200.123 -11.2695 199.783 -11.3302 199.437 -11.3939C199.404 -11.4 199.368 -11.406 199.334 -11.4121C199.195 -11.4364 199.058 -11.4637 198.919 -11.4879C198.912 -11.4879 198.906 -11.4879 198.897 -11.491C198.688 -11.5274 198.476 -11.5668 198.266 -11.6093C198.139 -11.6336 198.011 -11.6578 197.884 -11.6821C197.881 -11.6821 197.878 -11.6821 197.875 -11.6851C197.702 -11.7155 197.529 -11.7489 197.359 -11.7853C197.314 -11.7913 197.265 -11.8004 197.22 -11.8126C197.18 -11.8186 197.144 -11.8277 197.104 -11.8368C196.937 -11.8672 196.771 -11.9036 196.607 -11.937C196.607 -11.937 196.605 -11.938 196.601 -11.94C196.434 -11.9703 196.27 -12.0067 196.109 -12.0431C195.945 -12.0765 195.788 -12.1099 195.633 -12.1463C195.505 -12.1736 195.381 -12.2009 195.26 -12.2282C194.592 -12.3799 194.001 -12.5316 193.527 -12.6742C193.482 -12.6863 193.442 -12.7015 193.4 -12.7136C193.367 -12.7227 193.333 -12.7349 193.303 -12.744C193.254 -12.7591 193.209 -12.7743 193.166 -12.7895C192.984 -12.8532 192.83 -12.9139 192.705 -12.9715C192.657 -12.9958 192.608 -13.0201 192.56 -13.0474C192.517 -13.0716 192.478 -13.0959 192.438 -13.1262C192.402 -13.1475 192.368 -13.1717 192.335 -13.196C192.286 -13.2324 192.238 -13.2688 192.189 -13.3113C192.126 -13.3629 192.062 -13.4205 192.001 -13.4812C191.95 -13.5328 191.895 -13.5874 191.847 -13.645C191.798 -13.6936 191.753 -13.7482 191.707 -13.8028C191.595 -13.9363 191.489 -14.0789 191.385 -14.2275C191.337 -14.2973 191.288 -14.3701 191.243 -14.4429C191.194 -14.5157 191.149 -14.5916 191.103 -14.6674C191.012 -14.8161 190.927 -14.9739 190.842 -15.1316C190.8 -15.2105 190.76 -15.2894 190.721 -15.3683C190.642 -15.5291 190.563 -15.6899 190.493 -15.8476C190.421 -16.0084 190.351 -16.1662 190.287 -16.3239C190.226 -16.4726 190.169 -16.6182 190.114 -16.7608C190.084 -16.8427 190.054 -16.9216 190.023 -17.0005C190.008 -17.0369 189.996 -17.0733 189.984 -17.1067C189.896 -17.3524 189.82 -17.58 189.756 -17.7741C189.738 -17.8287 189.723 -17.8833 189.705 -17.9319C189.702 -17.944 189.699 -17.9531 189.696 -17.9653C189.693 -17.9744 189.689 -17.9835 189.686 -17.9895V-40.8467H189.383V-17.9895C189.383 -17.9895 189.38 -17.9713 189.377 -17.9653C189.35 -17.8803 189.322 -17.7893 189.286 -17.6892C189.262 -17.6042 189.231 -17.5162 189.198 -17.4222C189.165 -17.3221 189.128 -17.2159 189.086 -17.1067C188.986 -16.8276 188.867 -16.5211 188.734 -16.2056C188.719 -16.1662 188.7 -16.1267 188.682 -16.0873C188.652 -16.0084 188.616 -15.9295 188.576 -15.8476C188.543 -15.7687 188.506 -15.6899 188.464 -15.6079C188.427 -15.5291 188.388 -15.4471 188.349 -15.3683C188.312 -15.2894 188.27 -15.2105 188.227 -15.1316C188.188 -15.0558 188.145 -14.9799 188.103 -14.9041C188.06 -14.8222 188.015 -14.7433 187.966 -14.6674C187.921 -14.5916 187.875 -14.5157 187.827 -14.4429C187.739 -14.3034 187.645 -14.1669 187.551 -14.0394C187.49 -13.9575 187.426 -13.8786 187.363 -13.8028C187.317 -13.7482 187.271 -13.6936 187.223 -13.645C187.174 -13.5874 187.12 -13.5328 187.068 -13.4812C187.008 -13.4205 186.944 -13.3629 186.88 -13.3113C186.832 -13.2688 186.783 -13.2324 186.735 -13.196C186.701 -13.1717 186.668 -13.1475 186.631 -13.1262C186.592 -13.0959 186.552 -13.0716 186.51 -13.0474C186.461 -13.0201 186.413 -12.9958 186.364 -12.9715C186.24 -12.9139 186.085 -12.8532 185.903 -12.7895C185.861 -12.7743 185.815 -12.7591 185.767 -12.744C185.703 -12.7227 185.639 -12.7015 185.57 -12.6833C185.503 -12.6621 185.43 -12.6408 185.357 -12.6196C185.26 -12.5892 185.157 -12.5619 185.051 -12.5346C184.948 -12.5043 184.841 -12.477 184.732 -12.4497C184.702 -12.4406 184.668 -12.4345 184.638 -12.4254C184.48 -12.386 184.32 -12.3465 184.15 -12.3071C184.037 -12.2798 183.925 -12.2555 183.81 -12.2282C183.628 -12.1857 183.44 -12.1433 183.249 -12.1038C183.233 -12.1008 183.215 -12.0947 183.2 -12.0947C182.96 -12.0401 182.715 -11.9885 182.463 -11.937C182.26 -11.8945 182.056 -11.852 181.85 -11.8126C181.804 -11.8004 181.756 -11.7913 181.71 -11.7853C181.537 -11.7519 181.365 -11.7155 181.192 -11.6851C181.064 -11.6578 180.934 -11.6336 180.803 -11.6093C180.594 -11.5668 180.382 -11.5274 180.172 -11.491C180.163 -11.4879 180.157 -11.4879 180.151 -11.4879C180.011 -11.4637 179.875 -11.4364 179.735 -11.4121C179.702 -11.406 179.666 -11.4 179.632 -11.3939C179.286 -11.3302 178.947 -11.2695 178.616 -11.2119C178.583 -11.2058 178.549 -11.1997 178.516 -11.1937C178.316 -11.1573 178.118 -11.1239 177.924 -11.0905C177.912 -11.0875 177.897 -11.0844 177.882 -11.0844C177.645 -11.042 177.411 -11.0025 177.19 -10.9661C177.184 -10.9631 177.181 -10.9631 177.178 -10.9631C177.032 -10.9388 176.893 -10.9145 176.756 -10.8933C176.72 -10.8872 176.686 -10.8812 176.653 -10.8751C176.559 -10.8599 176.465 -10.8448 176.374 -10.8296C176.189 -10.7993 176.016 -10.7689 175.855 -10.7446C175.773 -10.7295 175.694 -10.7173 175.618 -10.7052C175.567 -10.6961 175.515 -10.687 175.467 -10.6809C175.464 -10.6779 175.461 -10.6779 175.458 -10.6809C175.418 -10.6718 175.379 -10.6658 175.342 -10.6597H159.348V-40.8467H159.044V-10.6597H129.009V-40.8467H128.706V-10.6597H98.6704V-40.8467H98.3671V-10.6597H82.2239C79.6511 -11.0723 72.7764 -12.2221 71.1988 -12.9715C69.8184 -13.6238 68.8051 -16.1237 68.3318 -17.5284V-40.8467H68.0284V-18.5083C68.0284 -18.5083 67.9738 -18.302 67.8706 -17.9653C67.4823 -16.7214 66.3992 -13.6996 64.858 -12.9715C63.2773 -12.2221 56.4056 -11.0723 53.836 -10.6597H37.9931V-40.8467H37.6897V-10.6597H7.65443V-40.8467H7.35104V-10.6597H-22.8359V-10.3563H7.35104V12.3491C7.35104 12.3491 7.34801 12.3643 7.34497 12.3704C7.33284 12.4098 7.3207 12.4523 7.30553 12.4948C7.28126 12.5737 7.25396 12.6556 7.22362 12.7405C7.20542 12.8012 7.18114 12.8649 7.15991 12.9286C7.15081 12.959 7.13867 12.9923 7.12654 13.0257C7.11743 13.0591 7.1053 13.0955 7.09013 13.1289C7.08103 13.1622 7.06586 13.1986 7.05372 13.232C6.9536 13.5111 6.83528 13.8175 6.70179 14.1331C6.68662 14.1725 6.66842 14.2119 6.65022 14.2514C6.61988 14.3303 6.58347 14.4091 6.54403 14.4911C6.51066 14.5699 6.47425 14.6488 6.43178 14.7307C6.39537 14.8096 6.35593 14.8915 6.31649 14.9704C6.28008 15.0493 6.23761 15.1282 6.19514 15.2071C6.1557 15.2829 6.11322 15.3587 6.07075 15.4346C6.02827 15.5135 5.98277 15.5954 5.93423 15.6712C5.88872 15.7471 5.84321 15.8229 5.79467 15.8957C5.70669 16.0353 5.61263 16.1718 5.51859 16.2992C5.45791 16.3812 5.3942 16.46 5.33048 16.5359C5.28498 16.5905 5.23947 16.6451 5.19093 16.6936C5.14239 16.7513 5.08778 16.8059 5.0362 16.8575C4.97552 16.9182 4.91181 16.9758 4.8481 17.0274C4.79956 17.0698 4.75102 17.1063 4.70247 17.1427C4.6691 17.1669 4.63573 17.1912 4.59932 17.2124C4.55988 17.2428 4.52044 17.267 4.47797 17.2913C4.42943 17.3186 4.38089 17.3429 4.33234 17.3672C4.20796 17.4248 4.05323 17.4855 3.87119 17.5492C3.82872 17.5644 3.78321 17.5795 3.73467 17.5947C3.67096 17.6159 3.60725 17.6372 3.53747 17.6554C3.47072 17.6766 3.39791 17.6979 3.3251 17.7191C3.22802 17.7494 3.12486 17.7767 3.01868 17.804C2.91553 17.8344 2.80934 17.8617 2.70012 17.889C2.66978 17.8981 2.63641 17.9042 2.60607 17.9133C2.44831 17.9527 2.28752 17.9921 2.11762 18.0316C2.00537 18.0589 1.89311 18.0832 1.77783 18.1105C1.59579 18.1529 1.40769 18.1954 1.21656 18.2349C1.20139 18.2379 1.18319 18.244 1.16802 18.244C0.928345 18.2986 0.682602 18.3501 0.43079 18.4017C0.227522 18.4442 0.0242519 18.4867 -0.182053 18.5261C-0.22756 18.5382 -0.276102 18.5473 -0.321609 18.5534C-0.494539 18.5868 -0.667471 18.6232 -0.840401 18.6535C-0.967823 18.6808 -1.09828 18.7051 -1.22873 18.7294C-1.43807 18.7718 -1.65044 18.8113 -1.85978 18.8477C-1.86888 18.8507 -1.87495 18.8507 -1.88102 18.8507C-2.02057 18.875 -2.1571 18.9023 -2.29666 18.9266C-2.33003 18.9326 -2.36644 18.9387 -2.39981 18.9448C-2.74567 19.0085 -3.08546 19.0692 -3.41615 19.1268C-3.44953 19.1329 -3.4829 19.1389 -3.51627 19.145C-3.71651 19.1814 -3.91371 19.2148 -4.10788 19.2482C-4.12001 19.2512 -4.13518 19.2542 -4.15035 19.2542C-4.38699 19.2967 -4.6206 19.3361 -4.84207 19.3726C-4.84814 19.3756 -4.85117 19.3756 -4.85421 19.3756C-4.99983 19.3999 -5.13939 19.4241 -5.27591 19.4454C-5.31232 19.4514 -5.34569 19.4575 -5.37906 19.4636C-5.47312 19.4787 -5.56717 19.4939 -5.65818 19.5091C-5.84325 19.5394 -6.01618 19.5698 -6.17697 19.594C-6.25889 19.6092 -6.33777 19.6213 -6.41361 19.6335C-6.46519 19.6426 -6.51677 19.6517 -6.56531 19.6577C-6.56834 19.6608 -6.57138 19.6608 -6.57441 19.6577C-6.61385 19.6668 -6.65329 19.6729 -6.6897 19.679H-22.8359V19.9824H-6.7079C-6.7079 19.9824 -6.69576 19.9854 -6.6897 19.9854C-6.63509 19.9945 -6.57744 20.0036 -6.51677 20.0127C-6.45912 20.0218 -6.39845 20.0309 -6.33473 20.043C-6.07989 20.0825 -5.79471 20.131 -5.48525 20.1826C-5.34873 20.2038 -5.20917 20.2281 -5.06354 20.2524C-5.05444 20.2554 -5.04231 20.2554 -5.03321 20.2584C-4.91488 20.2766 -4.79353 20.2979 -4.67217 20.3191C-4.35059 20.3737 -4.01079 20.4314 -3.66493 20.492C-3.58302 20.5042 -3.5011 20.5194 -3.41615 20.5345C-3.24626 20.5649 -3.07636 20.5952 -2.90646 20.6255C-2.82455 20.6407 -2.7396 20.6559 -2.65769 20.671C-2.46352 20.7044 -2.26632 20.7408 -2.06912 20.7772C-1.94169 20.8015 -1.81124 20.8258 -1.68382 20.847C-1.39256 20.9016 -1.09828 20.9593 -0.807028 21.0139C-0.676571 21.0381 -0.549149 21.0654 -0.418694 21.0897C-0.388355 21.0958 -0.354982 21.1019 -0.321609 21.1079C-0.236662 21.1261 -0.151712 21.1413 -0.0667629 21.1595C0.0181847 21.1777 0.103132 21.1929 0.185045 21.2111C0.269995 21.2293 0.35191 21.2444 0.436857 21.2626C0.518772 21.2809 0.600685 21.296 0.6826 21.3142C0.764515 21.3324 0.84643 21.3476 0.928345 21.3658C1.01026 21.384 1.08914 21.3992 1.16802 21.4174C1.2469 21.4356 1.32578 21.4507 1.40163 21.469C1.48051 21.4872 1.55939 21.5023 1.63524 21.5205C1.65041 21.5236 1.66861 21.5266 1.68378 21.5327C1.77783 21.5509 1.86884 21.5721 1.95683 21.5933C2.04481 21.6146 2.13582 21.6358 2.22077 21.6571C2.30572 21.6783 2.39067 21.6965 2.47258 21.7177C2.52719 21.7299 2.5818 21.745 2.63641 21.7572C2.72439 21.7814 2.81237 21.8027 2.89429 21.8239C2.96103 21.8421 3.02778 21.8603 3.09453 21.8785C3.15824 21.8967 3.22195 21.9149 3.28566 21.9301C3.38881 21.9604 3.48893 21.9908 3.58298 22.0181L3.63759 22.0363C3.7195 22.0606 3.79535 22.0879 3.87119 22.1121C4.05323 22.1758 4.20796 22.2365 4.33234 22.2942C4.38089 22.3184 4.42943 22.3427 4.47797 22.37C4.52044 22.3943 4.55988 22.4216 4.59932 22.4489C4.60843 22.4519 4.61753 22.458 4.62663 22.4671C4.66303 22.4883 4.69641 22.5126 4.72978 22.5399C4.8299 22.6127 4.92698 22.6977 5.02103 22.7917L5.12418 22.8949C5.18183 22.9555 5.2425 23.0223 5.30015 23.089C5.30621 23.0981 5.31228 23.1042 5.31835 23.1133C5.34262 23.1437 5.36992 23.177 5.39723 23.2104C5.53982 23.3833 5.67331 23.5745 5.80074 23.7747C5.84018 23.8354 5.87658 23.896 5.91602 23.9598C6.01311 24.1206 6.10716 24.2874 6.19514 24.4543C6.23761 24.5332 6.27705 24.612 6.31649 24.6909C6.39537 24.8487 6.47122 25.0095 6.54403 25.1703C6.58044 25.2522 6.61685 25.3311 6.65022 25.4099C6.75337 25.6496 6.84742 25.8832 6.93237 26.1047C6.95361 26.1593 6.97484 26.2139 6.99304 26.2685C7.02642 26.3595 7.05979 26.4475 7.09013 26.5325C7.1053 26.5689 7.11743 26.6023 7.12654 26.6356C7.15081 26.7024 7.17508 26.7661 7.19328 26.8298C7.20542 26.8601 7.21452 26.8905 7.22362 26.9208C7.23575 26.9511 7.24486 26.9815 7.25396 27.0118C7.27519 27.0695 7.2934 27.1271 7.30857 27.1787C7.32374 27.2181 7.33284 27.2545 7.34497 27.2909C7.34801 27.297 7.35104 27.3061 7.35104 27.3122V50.0176H-22.8359V50.321H7.35104V80.3563H-22.8359V80.6597H7.35104V110.847H7.65443V80.6597H22.6721C22.6721 80.6597 23.0392 80.7173 23.649 80.8144C26.2187 81.227 33.0904 82.3769 34.671 83.1232C36.2122 83.8544 37.2953 86.8761 37.6836 88.12C37.6867 88.1261 37.6897 88.1351 37.6897 88.1412V110.847H37.9931V88.1503C37.9931 88.1503 37.9992 88.1321 38.0022 88.12C38.3905 86.8761 39.4736 83.8544 41.0118 83.1232C42.5894 82.3769 49.4641 81.227 52.0369 80.8144C52.6436 80.7173 53.0107 80.6597 53.0107 80.6597H68.0284V110.847H68.3318V80.6597H98.3671V110.847H98.6704V80.6597H128.706V110.847H129.009V80.6597H159.044V110.847H159.348V80.6597H189.383V110.847H189.686V80.6597H219.722V110.847H220.025V80.6597H236.001C236.001 80.6597 236.014 80.6627 236.02 80.6627C236.074 80.6718 236.132 80.6809 236.193 80.69C236.25 80.6991 236.311 80.7082 236.375 80.7204C236.629 80.7598 236.915 80.8084 237.224 80.8599C237.361 80.8812 237.5 80.9054 237.646 80.9297C237.655 80.9328 237.667 80.9327 237.676 80.9358C237.794 80.954 237.916 80.9752 238.037 80.9965C238.359 81.0511 238.699 81.1087 239.044 81.1694C239.126 81.1815 239.208 81.1967 239.293 81.2119C239.463 81.2422 239.633 81.2725 239.803 81.3029C239.885 81.318 239.97 81.3332 240.052 81.3484C240.246 81.3818 240.443 81.4182 240.64 81.4546C240.768 81.4788 240.898 81.5031 241.026 81.5244C241.317 81.579 241.611 81.6366 241.902 81.6912C242.033 81.7155 242.16 81.7428 242.291 81.7671C242.321 81.7731 242.354 81.7792 242.388 81.7853C242.473 81.8035 242.558 81.8186 242.643 81.8368C242.728 81.855 242.812 81.8702 242.894 81.8884C242.979 81.9066 243.061 81.9218 243.146 81.94C243.228 81.9582 243.31 81.9734 243.392 81.9916C243.474 82.0098 243.556 82.0249 243.638 82.0431C243.72 82.0613 243.799 82.0765 243.877 82.0947C243.956 82.1129 244.035 82.1281 244.111 82.1463C244.19 82.1645 244.269 82.1797 244.345 82.1979C244.36 82.2009 244.378 82.2039 244.393 82.21C244.487 82.2282 244.578 82.2494 244.666 82.2707C244.754 82.2919 244.845 82.3132 244.93 82.3344C245.015 82.3556 245.1 82.3738 245.182 82.3951C245.237 82.4072 245.291 82.4224 245.346 82.4345C245.434 82.4588 245.522 82.48 245.604 82.5013C245.67 82.5195 245.737 82.5377 245.804 82.5559C245.868 82.5741 245.931 82.5923 245.995 82.6074C246.098 82.6378 246.198 82.6681 246.292 82.6954C246.311 82.7015 246.329 82.7076 246.347 82.7136C246.429 82.7379 246.505 82.7652 246.581 82.7895C246.763 82.8532 246.917 82.9139 247.042 82.9715C247.09 82.9958 247.139 83.0201 247.187 83.0474C247.23 83.0716 247.269 83.0989 247.309 83.1262C247.318 83.1293 247.327 83.1353 247.336 83.1444C247.372 83.1657 247.406 83.1899 247.439 83.2172C247.539 83.2901 247.636 83.375 247.73 83.4691L247.834 83.5722C247.891 83.6329 247.952 83.6996 248.01 83.7664C248.016 83.7755 248.022 83.7816 248.028 83.7907C248.052 83.821 248.079 83.8544 248.107 83.8877C248.249 84.0607 248.383 84.2518 248.51 84.452C248.55 84.5127 248.586 84.5734 248.625 84.6371C248.722 84.7979 248.817 84.9648 248.905 85.1316C248.947 85.2105 248.986 85.2894 249.026 85.3683C249.105 85.526 249.181 85.6868 249.253 85.8476C249.29 85.9295 249.326 86.0084 249.36 86.0873C249.463 86.327 249.557 86.5606 249.642 86.782C249.663 86.8367 249.684 86.8913 249.702 86.9459C249.736 87.0369 249.769 87.1249 249.799 87.2098C249.815 87.2462 249.827 87.2796 249.836 87.313C249.86 87.3797 249.884 87.4434 249.903 87.5071C249.915 87.5375 249.924 87.5678 249.933 87.5982C249.945 87.6285 249.954 87.6588 249.963 87.6892C249.985 87.7468 250.003 87.8045 250.018 87.856C250.033 87.8955 250.042 87.9319 250.054 87.9683C250.057 87.9743 250.06 87.9835 250.06 87.9895V110.847H250.364V87.9986C250.364 87.9986 250.37 87.9804 250.373 87.9683C250.373 87.9561 250.379 87.944 250.382 87.9319C250.391 87.9076 250.397 87.8833 250.406 87.856C250.434 87.7772 250.461 87.6892 250.491 87.5982C250.503 87.5678 250.512 87.5375 250.522 87.5071C250.543 87.4434 250.564 87.3797 250.588 87.313C250.6 87.2796 250.613 87.2462 250.625 87.2098C250.655 87.1249 250.688 87.0369 250.722 86.9459C250.743 86.8913 250.764 86.8367 250.782 86.782C250.828 86.6698 250.87 86.5575 250.916 86.4392C250.965 86.3239 251.013 86.2056 251.065 86.0873C251.156 85.881 251.25 85.6747 251.353 85.4653C251.383 85.4016 251.414 85.341 251.447 85.2772C251.477 85.2135 251.511 85.1529 251.544 85.0891C251.602 84.9799 251.662 84.8677 251.726 84.7615C251.729 84.7554 251.732 84.7494 251.738 84.7433C251.793 84.6462 251.85 84.5521 251.911 84.4581C251.911 84.452 251.917 84.446 251.92 84.4429C251.981 84.3489 252.042 84.2579 252.102 84.1729C252.108 84.1638 252.111 84.1578 252.117 84.1517C252.184 84.0607 252.251 83.9727 252.318 83.8877C252.345 83.8544 252.372 83.821 252.396 83.7907C252.403 83.7816 252.409 83.7755 252.415 83.7664C252.472 83.6996 252.533 83.6329 252.591 83.5722C252.606 83.557 252.618 83.5449 252.63 83.5328C252.651 83.5115 252.673 83.4903 252.694 83.4691C252.788 83.375 252.885 83.2901 252.985 83.2172C253.018 83.1899 253.052 83.1657 253.088 83.1444C253.097 83.1353 253.106 83.1293 253.116 83.1262C253.155 83.0989 253.194 83.0716 253.237 83.0474C253.285 83.0201 253.334 82.9958 253.383 82.9715C253.507 82.9139 253.662 82.8532 253.844 82.7895C253.916 82.7652 253.995 82.7379 254.077 82.7136C254.12 82.7015 254.159 82.6894 254.205 82.6742C254.505 82.5832 254.854 82.4891 255.239 82.3951C255.348 82.3678 255.461 82.3405 255.579 82.3132C255.64 82.298 255.697 82.2859 255.755 82.2707C255.861 82.2464 255.97 82.2221 256.08 82.1979C256.155 82.1797 256.234 82.1645 256.31 82.1463C256.389 82.1281 256.468 82.1129 256.547 82.0947C256.626 82.0765 256.705 82.0613 256.786 82.0431C256.908 82.0189 257.029 81.9916 257.154 81.9673C257.36 81.9218 257.569 81.8793 257.782 81.8368C257.867 81.8186 257.952 81.8035 258.036 81.7853C258.07 81.7792 258.103 81.7731 258.134 81.7671C258.264 81.7428 258.391 81.7155 258.522 81.6912C258.813 81.6366 259.107 81.579 259.402 81.5244C259.529 81.5001 259.657 81.4788 259.784 81.4546C259.981 81.4182 260.178 81.3818 260.373 81.3484C260.457 81.3332 260.539 81.318 260.621 81.3029C260.791 81.2725 260.961 81.2422 261.131 81.2119C261.216 81.1967 261.298 81.1815 261.38 81.1694C261.726 81.1087 262.065 81.0511 262.387 80.9965C262.511 80.9752 262.63 80.954 262.748 80.9358C262.757 80.9327 262.769 80.9328 262.778 80.9297C262.866 80.9146 262.954 80.9024 263.039 80.8872C263.176 80.863 263.306 80.8417 263.434 80.8205C263.555 80.7993 263.67 80.7811 263.783 80.7628C263.804 80.7598 263.822 80.7568 263.84 80.7538C263.895 80.7447 263.946 80.7355 264.001 80.7264C264.053 80.7204 264.104 80.7113 264.153 80.7022C264.244 80.687 264.329 80.6749 264.408 80.6627C264.414 80.6627 264.417 80.6597 264.423 80.6597H280.551V80.3563H264.408C264.368 80.3503 264.329 80.3442 264.289 80.3351C264.289 80.3351 264.286 80.3381 264.283 80.3351C264.235 80.329 264.183 80.3199 264.128 80.3108C264.092 80.3047 264.056 80.2987 264.019 80.2926C263.892 80.2714 263.758 80.2501 263.619 80.2259C263.598 80.2259 263.576 80.2198 263.555 80.2168C263.406 80.1925 263.255 80.1682 263.094 80.1409C263.061 80.1348 263.024 80.1288 262.991 80.1227C262.854 80.1015 262.715 80.0772 262.569 80.0529C262.569 80.0529 262.563 80.0529 262.557 80.0499C262.335 80.0135 262.102 79.9741 261.865 79.9316C261.85 79.9316 261.835 79.9285 261.823 79.9255C261.629 79.8921 261.431 79.8588 261.231 79.8223C261.198 79.8163 261.164 79.8102 261.131 79.8041C260.8 79.7465 260.461 79.6858 260.115 79.6221C260.081 79.616 260.045 79.61 260.012 79.6039C259.872 79.5796 259.735 79.5523 259.596 79.5281C259.59 79.5281 259.584 79.5281 259.575 79.525C259.365 79.4886 259.153 79.4492 258.944 79.4067C258.816 79.3824 258.689 79.3582 258.561 79.3339C258.558 79.3339 258.555 79.3339 258.552 79.3309C258.379 79.3005 258.206 79.2672 258.036 79.2308C257.991 79.2247 257.942 79.2156 257.897 79.2034C257.857 79.1974 257.821 79.1883 257.782 79.1792C257.615 79.1488 257.448 79.1124 257.284 79.0791C257.284 79.0791 257.282 79.078 257.278 79.076C257.111 79.0457 256.947 79.0093 256.786 78.9729C256.623 78.9395 256.465 78.9061 256.31 78.8697C256.183 78.8424 256.058 78.8151 255.937 78.7878C255.27 78.6361 254.678 78.4844 254.205 78.3418C254.159 78.3297 254.12 78.3145 254.077 78.3024C254.044 78.2933 254.01 78.2812 253.98 78.272C253.932 78.2569 253.886 78.2417 253.844 78.2265C253.662 78.1628 253.507 78.1021 253.383 78.0445C253.334 78.0202 253.285 77.996 253.237 77.9687C253.194 77.9444 253.155 77.9201 253.116 77.8898C253.079 77.8685 253.046 77.8443 253.012 77.82C252.964 77.7836 252.915 77.7472 252.867 77.7047C252.803 77.6531 252.739 77.5955 252.679 77.5348C252.627 77.4832 252.572 77.4286 252.524 77.371C252.475 77.3224 252.43 77.2678 252.384 77.2132C252.272 77.0797 252.166 76.9371 252.063 76.7885C252.014 76.7187 251.966 76.6459 251.92 76.5731C251.872 76.5003 251.826 76.4244 251.781 76.3486C251.69 76.1999 251.605 76.0422 251.52 75.8844C251.477 75.8055 251.438 75.7266 251.398 75.6478C251.319 75.487 251.241 75.3262 251.171 75.1684C251.098 75.0076 251.028 74.8498 250.965 74.6921C250.901 74.5374 250.84 74.3826 250.782 74.234C250.764 74.1824 250.743 74.1308 250.725 74.0792C250.716 74.058 250.71 74.0368 250.701 74.0155C250.673 73.9427 250.649 73.8729 250.625 73.8062C250.6 73.7364 250.579 73.6697 250.555 73.606C250.543 73.5726 250.531 73.5422 250.522 73.5089C250.491 73.4148 250.461 73.3238 250.434 73.2419C250.412 73.1721 250.391 73.1084 250.373 73.0477C250.37 73.0356 250.367 73.0265 250.364 73.0174V50.321H280.551V50.0176H250.364V19.9824H280.551V19.679H250.364V-10.3563H280.399ZM233.122 19.8307C232.84 19.8762 232.531 19.9277 232.206 19.9824C231.451 20.1098 230.598 20.2584 229.721 20.4192C228.341 20.668 226.897 20.9471 225.674 21.2232C224.467 21.4963 223.438 21.7723 222.916 22.0211C222.355 22.2851 221.876 22.7978 221.475 23.3773C221.072 23.9628 220.726 24.6454 220.45 25.2886C220.286 25.6648 220.143 26.0319 220.025 26.3596C219.971 26.5143 219.919 26.6599 219.873 26.7964C219.828 26.6599 219.776 26.5143 219.722 26.3596C219.603 26.0319 219.464 25.6648 219.3 25.2886C219.021 24.6454 218.678 23.9628 218.275 23.3773C217.871 22.7978 217.392 22.2851 216.833 22.0211C216.309 21.7723 215.28 21.4963 214.073 21.2232C212.85 20.9471 211.406 20.668 210.025 20.4192C209.146 20.2584 208.29 20.1098 207.535 19.9824C207.213 19.9277 206.91 19.8762 206.628 19.8307C206.91 19.7852 207.216 19.7336 207.544 19.679C208.296 19.5515 209.149 19.4029 210.025 19.2451C211.406 18.9964 212.85 18.7142 214.073 18.4381C215.28 18.1651 216.309 17.889 216.833 17.6432C217.392 17.3763 217.871 16.8635 218.275 16.2841C218.678 15.7016 219.021 15.0159 219.3 14.3727C219.464 13.9965 219.603 13.6294 219.722 13.3018C219.779 13.1471 219.828 13.0014 219.873 12.8649C219.919 13.0014 219.971 13.1471 220.025 13.3018C220.143 13.6294 220.286 13.9965 220.45 14.3727C220.726 15.0159 221.072 15.7016 221.475 16.2841C221.876 16.8635 222.355 17.3763 222.913 17.6432C223.438 17.889 224.467 18.1651 225.674 18.4381C226.897 18.7142 228.341 18.9964 229.721 19.2451C230.598 19.4029 231.451 19.5515 232.206 19.679C232.531 19.7336 232.84 19.7852 233.122 19.8307ZM128.706 56.143C128.624 55.9306 128.536 55.7061 128.436 55.4786C128.157 54.8324 127.814 54.1498 127.41 53.5642C127.007 52.9848 126.527 52.472 125.969 52.2081C125.444 51.9593 124.419 51.6832 123.208 51.4102C121.986 51.1341 120.542 50.855 119.161 50.6062C118.609 50.5061 118.066 50.412 117.553 50.321C116.898 50.2057 116.288 50.1056 115.763 50.0176C116.701 49.8629 117.905 49.6596 119.161 49.4321C120.542 49.1833 121.986 48.9012 123.208 48.6251C124.419 48.3551 125.444 48.079 125.969 47.8302C126.527 47.5632 127.007 47.0536 127.41 46.4711C127.814 45.8885 128.157 45.2059 128.436 44.5597C128.536 44.3322 128.624 44.1077 128.706 43.8953C128.824 43.5889 128.924 43.3037 129.009 43.0549C129.152 43.4797 129.346 44.0076 129.586 44.5597C129.862 45.2059 130.207 45.8885 130.611 46.4711C131.011 47.0505 131.491 47.5632 132.049 47.8302C132.574 48.079 133.602 48.3551 134.813 48.6251C136.033 48.9012 137.477 49.1833 138.857 49.4321C140.113 49.6596 141.318 49.8629 142.258 50.0176C141.73 50.1056 141.123 50.2057 140.465 50.321C139.952 50.412 139.409 50.5061 138.857 50.6062C137.477 50.855 136.033 51.1341 134.813 51.4102C133.602 51.6832 132.574 51.9593 132.052 52.2081C131.491 52.472 131.011 52.9848 130.611 53.5642C130.207 54.1498 129.862 54.8324 129.586 55.4786C129.346 56.0308 129.152 56.5587 129.009 56.9834C128.924 56.7346 128.824 56.4494 128.706 56.143ZM68.3318 19.9824H98.3671V50.0176H68.3318V19.9824ZM68.0284 50.0176H37.9931V19.9824H68.0284V50.0176ZM98.6704 19.9824H128.706V43.0064C128.229 44.4141 127.219 46.9019 125.839 47.5541C124.258 48.3035 117.386 49.4533 114.817 49.866C114.207 49.963 113.84 50.0176 113.84 50.0176H98.6704V19.9824ZM132.18 47.5541C130.641 46.826 129.558 43.8043 129.17 42.5604C129.064 42.2236 129.009 42.0173 129.009 42.0173V19.9824H159.044V50.0176H144.178C144.178 50.0176 143.811 49.963 143.205 49.866C140.632 49.4533 133.757 48.3035 132.18 47.5541ZM159.348 19.9824H189.383V42.6878V50.0176H159.348V19.9824ZM189.686 19.9824H205.663C205.663 19.9824 205.675 19.9854 205.681 19.9854C205.736 19.9945 205.793 20.0036 205.854 20.0127C205.912 20.0218 205.972 20.0309 206.036 20.043C206.291 20.0825 206.576 20.131 206.885 20.1826C207.022 20.2038 207.162 20.2281 207.307 20.2524C207.316 20.2554 207.328 20.2554 207.337 20.2584C207.456 20.2766 207.577 20.2979 207.699 20.3191C208.02 20.3737 208.36 20.4314 208.706 20.492C208.788 20.5042 208.87 20.5194 208.955 20.5345C209.124 20.5649 209.294 20.5952 209.464 20.6255C209.546 20.6407 209.631 20.6559 209.713 20.671C209.907 20.7044 210.104 20.7408 210.302 20.7772C210.429 20.8015 210.559 20.8258 210.687 20.847C210.978 20.9016 211.272 20.9593 211.564 21.0139C211.694 21.0381 211.822 21.0654 211.952 21.0897C211.982 21.0958 212.016 21.1019 212.049 21.1079C212.134 21.1261 212.219 21.1413 212.304 21.1595C212.389 21.1777 212.474 21.1929 212.556 21.2111C212.641 21.2293 212.723 21.2444 212.808 21.2626C212.889 21.2809 212.971 21.296 213.053 21.3142C213.135 21.3324 213.217 21.3476 213.299 21.3658C213.381 21.384 213.46 21.3992 213.539 21.4174C213.618 21.4356 213.696 21.4507 213.772 21.469C213.851 21.4872 213.93 21.5023 214.006 21.5205C214.021 21.5236 214.039 21.5266 214.054 21.5327C214.149 21.5509 214.24 21.5721 214.328 21.5933C214.415 21.6146 214.507 21.6358 214.591 21.6571C214.676 21.6783 214.761 21.6965 214.843 21.7177C214.898 21.7299 214.953 21.745 215.007 21.7572C215.095 21.7814 215.183 21.8027 215.265 21.8239C215.332 21.8421 215.398 21.8603 215.465 21.8785C215.529 21.8967 215.593 21.9149 215.656 21.9301C215.76 21.9604 215.86 21.9908 215.954 22.0181L216.008 22.0363C216.09 22.0606 216.166 22.0879 216.242 22.1121C216.424 22.1758 216.579 22.2365 216.703 22.2942C216.752 22.3184 216.8 22.3427 216.849 22.37C216.891 22.3943 216.931 22.4216 216.97 22.4489C216.979 22.4519 216.988 22.458 216.997 22.4671C217.034 22.4883 217.067 22.5126 217.1 22.5399C217.201 22.6127 217.298 22.6977 217.392 22.7917L217.495 22.8949C217.553 22.9555 217.613 23.0223 217.671 23.089C217.677 23.0981 217.683 23.1042 217.689 23.1133C217.713 23.1437 217.741 23.177 217.768 23.2104C217.911 23.3833 218.044 23.5745 218.171 23.7747C218.211 23.8354 218.247 23.896 218.287 23.9598C218.384 24.1206 218.478 24.2874 218.566 24.4543C218.608 24.5332 218.648 24.612 218.687 24.6909C218.766 24.8487 218.842 25.0095 218.915 25.1703C218.951 25.2522 218.988 25.3311 219.021 25.4099C219.124 25.6496 219.218 25.8832 219.303 26.1047C219.324 26.1593 219.346 26.2139 219.364 26.2685C219.397 26.3595 219.43 26.4475 219.461 26.5325C219.476 26.5689 219.488 26.6023 219.497 26.6356C219.522 26.7024 219.546 26.7661 219.564 26.8298C219.576 26.8601 219.585 26.8905 219.594 26.9208C219.606 26.9511 219.616 26.9815 219.625 27.0118C219.646 27.0695 219.664 27.1271 219.679 27.1787C219.694 27.2181 219.704 27.2545 219.716 27.2909C219.719 27.297 219.722 27.3061 219.722 27.3122V50.0176H189.686V19.9824ZM219.722 12.3491C219.722 12.3491 219.719 12.3643 219.716 12.3704C219.704 12.4098 219.691 12.4523 219.676 12.4948C219.652 12.5737 219.625 12.6556 219.594 12.7405C219.576 12.8012 219.552 12.8649 219.531 12.9286C219.521 12.959 219.509 12.9923 219.497 13.0257C219.488 13.0591 219.476 13.0955 219.461 13.1289C219.452 13.1622 219.437 13.1986 219.424 13.232C219.324 13.5111 219.206 13.8175 219.072 14.1331C219.057 14.1725 219.039 14.2119 219.021 14.2514C218.991 14.3303 218.954 14.4091 218.915 14.4911C218.881 14.5699 218.845 14.6488 218.802 14.7307C218.766 14.8096 218.727 14.8915 218.687 14.9704C218.651 15.0493 218.608 15.1282 218.566 15.2071C218.526 15.2829 218.484 15.3587 218.441 15.4346C218.399 15.5135 218.353 15.5954 218.305 15.6712C218.259 15.7471 218.214 15.8229 218.165 15.8957C218.077 16.0353 217.983 16.1718 217.889 16.2992C217.829 16.3812 217.765 16.46 217.701 16.5359C217.656 16.5905 217.61 16.6451 217.562 16.6936C217.513 16.7513 217.458 16.8059 217.407 16.8575C217.346 16.9182 217.283 16.9758 217.219 17.0274C217.17 17.0698 217.122 17.1063 217.073 17.1427C217.04 17.1669 217.006 17.1912 216.97 17.2124C216.931 17.2428 216.891 17.267 216.849 17.2913C216.8 17.3186 216.752 17.3429 216.703 17.3672C216.579 17.4248 216.424 17.4855 216.242 17.5492C216.199 17.5644 216.154 17.5795 216.105 17.5947C216.042 17.6159 215.978 17.6372 215.908 17.6554C215.841 17.6766 215.769 17.6979 215.696 17.7191C215.599 17.7494 215.496 17.7767 215.389 17.804C215.286 17.8344 215.18 17.8617 215.071 17.889C215.04 17.8981 215.007 17.9042 214.977 17.9133C214.819 17.9527 214.658 17.9921 214.488 18.0316C214.376 18.0589 214.264 18.0832 214.149 18.1105C213.966 18.1529 213.778 18.1954 213.587 18.2349C213.572 18.2379 213.554 18.244 213.539 18.244C213.299 18.2986 213.053 18.3501 212.801 18.4017C212.598 18.4442 212.395 18.4867 212.189 18.5261C212.143 18.5382 212.095 18.5473 212.049 18.5534C211.876 18.5868 211.703 18.6232 211.53 18.6535C211.403 18.6808 211.272 18.7051 211.142 18.7294C210.933 18.7718 210.72 18.8113 210.511 18.8477C210.502 18.8507 210.496 18.8507 210.49 18.8507C210.35 18.875 210.214 18.9023 210.074 18.9266C210.041 18.9326 210.004 18.9387 209.971 18.9448C209.625 19.0085 209.285 19.0692 208.955 19.1268C208.921 19.1329 208.888 19.1389 208.854 19.145C208.654 19.1814 208.457 19.2148 208.263 19.2482C208.251 19.2512 208.236 19.2542 208.22 19.2542C207.984 19.2967 207.75 19.3361 207.529 19.3726C207.523 19.3756 207.52 19.3756 207.516 19.3756C207.371 19.3999 207.231 19.4241 207.095 19.4454C207.058 19.4514 207.025 19.4575 206.992 19.4636C206.898 19.4787 206.804 19.4939 206.713 19.5091C206.527 19.5394 206.355 19.5698 206.194 19.594C206.112 19.6092 206.033 19.6213 205.957 19.6335C205.906 19.6426 205.854 19.6517 205.805 19.6577C205.802 19.6608 205.799 19.6608 205.796 19.6577C205.757 19.6668 205.717 19.6729 205.681 19.679H189.686V-3.01739C189.686 -3.01739 189.693 -3.03559 189.696 -3.04773C189.696 -3.05986 189.702 -3.072 189.705 -3.08413C189.714 -3.10841 189.72 -3.13268 189.729 -3.15998C189.756 -3.23886 189.784 -3.32684 189.814 -3.41786C189.826 -3.4482 189.835 -3.47854 189.844 -3.50888C189.865 -3.57259 189.887 -3.6363 189.911 -3.70304C189.923 -3.73642 189.935 -3.76979 189.947 -3.8062C189.978 -3.89114 190.011 -3.97913 190.044 -4.07014C190.066 -4.12475 190.087 -4.17936 190.105 -4.23397C190.151 -4.34622 190.193 -4.45848 190.239 -4.5768C190.287 -4.69209 190.336 -4.81041 190.387 -4.92873C190.478 -5.13503 190.572 -5.34133 190.676 -5.55067C190.706 -5.61438 190.736 -5.67506 190.77 -5.73877C190.8 -5.80248 190.833 -5.86316 190.867 -5.92687C190.924 -6.03609 190.985 -6.14834 191.049 -6.25453C191.052 -6.26059 191.055 -6.26666 191.061 -6.27273C191.115 -6.36981 191.173 -6.46386 191.234 -6.55791C191.234 -6.56398 191.24 -6.57005 191.243 -6.57308C191.304 -6.66713 191.364 -6.75815 191.425 -6.84309C191.431 -6.8522 191.434 -6.85826 191.44 -6.86433C191.507 -6.95535 191.574 -7.04333 191.64 -7.12828C191.668 -7.16165 191.695 -7.19503 191.719 -7.22536C191.725 -7.23447 191.731 -7.24053 191.737 -7.24963C191.795 -7.31638 191.856 -7.38313 191.913 -7.4438C191.928 -7.45897 191.941 -7.47111 191.953 -7.48324C191.974 -7.50448 191.995 -7.52571 192.016 -7.54695C192.111 -7.641 192.208 -7.72595 192.308 -7.79876C192.341 -7.82607 192.374 -7.85034 192.411 -7.87158C192.42 -7.88068 192.429 -7.88675 192.438 -7.88978C192.478 -7.91709 192.517 -7.94439 192.56 -7.96866C192.608 -7.99596 192.657 -8.02024 192.705 -8.04451C192.83 -8.10215 192.984 -8.16283 193.166 -8.22654C193.239 -8.25081 193.318 -8.27812 193.4 -8.30239C193.442 -8.31452 193.482 -8.32666 193.527 -8.34183C193.828 -8.43284 194.177 -8.52689 194.562 -8.62094C194.671 -8.64825 194.783 -8.67555 194.902 -8.70286C194.962 -8.71803 195.02 -8.73016 195.078 -8.74533C195.184 -8.7696 195.293 -8.79387 195.402 -8.81815C195.478 -8.83635 195.557 -8.85152 195.633 -8.86972C195.712 -8.88792 195.791 -8.90309 195.869 -8.9213C195.948 -8.9395 196.027 -8.95467 196.109 -8.97287C196.23 -8.99714 196.352 -9.02445 196.476 -9.04872C196.683 -9.09423 196.892 -9.1367 197.104 -9.17917C197.189 -9.19738 197.274 -9.21255 197.359 -9.23075C197.392 -9.23682 197.426 -9.24289 197.456 -9.24895C197.587 -9.27322 197.714 -9.30053 197.845 -9.3248C198.136 -9.37941 198.43 -9.43705 198.724 -9.49166C198.852 -9.51593 198.979 -9.53717 199.107 -9.56144C199.304 -9.59785 199.501 -9.63425 199.695 -9.66763C199.78 -9.6828 199.862 -9.69796 199.944 -9.71313C200.114 -9.74347 200.284 -9.77381 200.454 -9.80415C200.539 -9.81932 200.621 -9.83449 200.702 -9.84662C201.048 -9.9073 201.388 -9.96494 201.71 -10.0196C201.834 -10.0408 201.952 -10.062 202.071 -10.0802C202.08 -10.0833 202.092 -10.0833 202.101 -10.0863C202.189 -10.1015 202.277 -10.1136 202.362 -10.1288C202.498 -10.153 202.629 -10.1743 202.756 -10.1955C202.878 -10.2168 202.993 -10.235 203.105 -10.2532C203.126 -10.2562 203.145 -10.2592 203.163 -10.2623C203.217 -10.2714 203.269 -10.2805 203.324 -10.2896C203.375 -10.2956 203.427 -10.3047 203.475 -10.3138C203.566 -10.329 203.651 -10.3411 203.73 -10.3533C203.736 -10.3533 203.739 -10.3563 203.745 -10.3563H219.722V12.3491ZM179.687 -11.0935C181.067 -11.3423 182.511 -11.6245 183.734 -11.9006C184.941 -12.1736 185.97 -12.4466 186.495 -12.6954C187.053 -12.9624 187.532 -13.4751 187.936 -14.0546C188.339 -14.6371 188.682 -15.3228 188.961 -15.9659C189.125 -16.3421 189.265 -16.7092 189.383 -17.0369C189.441 -17.1916 189.489 -17.3372 189.535 -17.4738C189.58 -17.3372 189.632 -17.1916 189.686 -17.0369C189.805 -16.7092 189.947 -16.3421 190.111 -15.9659C190.387 -15.3228 190.733 -14.6371 191.137 -14.0546C191.537 -13.4751 192.016 -12.9624 192.575 -12.6954C193.1 -12.4466 194.128 -12.1736 195.336 -11.9006C196.558 -11.6245 198.002 -11.3423 199.383 -11.0935C200.259 -10.9358 201.112 -10.7871 201.867 -10.6597C202.192 -10.6051 202.502 -10.5535 202.784 -10.508C202.502 -10.4625 202.192 -10.4109 201.867 -10.3563C201.112 -10.2289 200.259 -10.0802 199.383 -9.91944C198.002 -9.67066 196.558 -9.39155 195.336 -9.11546C194.128 -8.84241 193.1 -8.56633 192.578 -8.31755C192.016 -8.05361 191.537 -7.54089 191.137 -6.96142C190.733 -6.37588 190.387 -5.69326 190.111 -5.05008C189.947 -4.67388 189.805 -4.30679 189.686 -3.97913C189.632 -3.8244 189.58 -3.67877 189.535 -3.54225C189.489 -3.67877 189.438 -3.8244 189.383 -3.97913C189.265 -4.30679 189.125 -4.67388 188.961 -5.05008C188.682 -5.69326 188.339 -6.37588 187.936 -6.96142C187.532 -7.54089 187.053 -8.05361 186.495 -8.31755C185.97 -8.56633 184.941 -8.84241 183.734 -9.11546C182.511 -9.39155 181.067 -9.67066 179.687 -9.91944C178.807 -10.0802 177.951 -10.2289 177.196 -10.3563C176.874 -10.4109 176.571 -10.4625 176.289 -10.508C176.571 -10.5535 176.877 -10.6051 177.205 -10.6597C177.958 -10.7871 178.81 -10.9358 179.687 -11.0935ZM175.324 -10.3563C175.324 -10.3563 175.336 -10.3533 175.342 -10.3533C175.397 -10.3442 175.455 -10.3351 175.515 -10.326C175.573 -10.3169 175.634 -10.3078 175.697 -10.2956C175.952 -10.2562 176.237 -10.2077 176.547 -10.1561C176.683 -10.1348 176.823 -10.1106 176.968 -10.0863C176.978 -10.0833 176.99 -10.0833 176.999 -10.0802C177.117 -10.062 177.238 -10.0408 177.36 -10.0196C177.681 -9.96494 178.021 -9.9073 178.367 -9.84662C178.449 -9.83449 178.531 -9.81932 178.616 -9.80415C178.786 -9.77381 178.956 -9.74347 179.126 -9.71313C179.207 -9.69796 179.292 -9.6828 179.374 -9.66763C179.569 -9.63425 179.766 -9.59785 179.963 -9.56144C180.09 -9.53717 180.221 -9.5129 180.348 -9.49166C180.639 -9.43705 180.934 -9.37941 181.225 -9.3248C181.355 -9.30053 181.483 -9.27322 181.613 -9.24895C181.644 -9.24289 181.677 -9.23682 181.71 -9.23075C181.795 -9.21255 181.88 -9.19738 181.965 -9.17917C182.05 -9.16097 182.135 -9.1458 182.217 -9.1276C182.302 -9.10939 182.384 -9.09422 182.469 -9.07602C182.551 -9.05782 182.633 -9.04265 182.715 -9.02445C182.797 -9.00624 182.878 -8.99108 182.96 -8.97287C183.042 -8.95467 183.121 -8.9395 183.2 -8.9213C183.279 -8.90309 183.358 -8.88792 183.434 -8.86972C183.513 -8.85152 183.591 -8.83635 183.667 -8.81815C183.682 -8.81511 183.701 -8.81208 183.716 -8.80601C183.81 -8.7878 183.901 -8.76657 183.989 -8.74533C184.077 -8.72409 184.168 -8.70286 184.253 -8.68162C184.338 -8.66039 184.423 -8.64218 184.505 -8.62094C184.559 -8.60881 184.614 -8.59364 184.668 -8.5815C184.756 -8.55723 184.844 -8.536 184.926 -8.51476C184.993 -8.49656 185.06 -8.47835 185.127 -8.46015C185.19 -8.44194 185.254 -8.42374 185.318 -8.40857C185.421 -8.37823 185.521 -8.3479 185.615 -8.32059L185.67 -8.30239C185.752 -8.27812 185.827 -8.25081 185.903 -8.22654C186.085 -8.16283 186.24 -8.10215 186.364 -8.04451C186.413 -8.02024 186.461 -7.99596 186.51 -7.96866C186.552 -7.94439 186.592 -7.91709 186.631 -7.88978C186.64 -7.88675 186.65 -7.88068 186.659 -7.87158C186.695 -7.85034 186.728 -7.82607 186.762 -7.79876C186.862 -7.72595 186.959 -7.641 187.053 -7.54695L187.156 -7.4438C187.214 -7.38313 187.275 -7.31638 187.332 -7.24963C187.338 -7.24053 187.344 -7.23447 187.35 -7.22536C187.375 -7.19503 187.402 -7.16165 187.429 -7.12828C187.572 -6.95535 187.705 -6.76422 187.833 -6.56398C187.872 -6.5033 187.909 -6.44263 187.948 -6.37891C188.045 -6.21812 188.139 -6.05126 188.227 -5.8844C188.27 -5.80552 188.309 -5.72663 188.349 -5.64775C188.427 -5.48999 188.503 -5.3292 188.576 -5.1684C188.612 -5.08649 188.649 -5.00761 188.682 -4.92873C188.785 -4.68905 188.879 -4.45544 188.964 -4.23397C188.986 -4.17936 189.007 -4.12475 189.025 -4.07014C189.058 -3.97913 189.092 -3.89114 189.122 -3.8062C189.137 -3.76979 189.149 -3.73642 189.159 -3.70304C189.183 -3.6363 189.207 -3.57259 189.225 -3.50888C189.237 -3.47854 189.247 -3.4482 189.256 -3.41786C189.268 -3.38752 189.277 -3.35719 189.286 -3.32684C189.307 -3.2692 189.325 -3.21156 189.341 -3.15998C189.356 -3.12054 189.365 -3.08414 189.377 -3.04773C189.38 -3.04166 189.383 -3.03256 189.383 -3.02649V19.679H159.348V-10.3563H175.324ZM159.044 -10.3563V19.679H129.009V-10.3563H159.044ZM128.706 -10.3563V19.679H98.6704V-10.3563H128.706ZM82.2421 -10.3563H98.3671V19.679H68.3318V-3.4846C68.8051 -4.88929 69.8184 -7.38919 71.1988 -8.04451C72.7764 -8.79084 79.6511 -9.94067 82.2239 -10.3533C82.2299 -10.3533 82.236 -10.3563 82.2421 -10.3563ZM55.6987 -10.6597C56.4511 -10.7871 57.3037 -10.9358 58.1805 -11.0935C59.5609 -11.3423 61.005 -11.6245 62.2276 -11.9006C63.4381 -12.1736 64.4636 -12.4466 64.9885 -12.6954C65.5467 -12.9624 66.026 -13.4751 66.4295 -14.0546C66.833 -14.6371 67.1759 -15.3228 67.455 -15.9659C67.6947 -16.5181 67.8858 -17.046 68.0284 -17.4738C68.1133 -17.222 68.2134 -16.9368 68.3318 -16.6334C68.4137 -16.418 68.5047 -16.1935 68.6048 -15.9659C68.8809 -15.3228 69.2268 -14.6371 69.6303 -14.0546C70.0307 -13.4751 70.5101 -12.9624 71.0683 -12.6954C71.5932 -12.4466 72.6217 -12.1736 73.8322 -11.9006C75.0518 -11.6245 76.4959 -11.3423 77.8763 -11.0935C78.7531 -10.9358 79.6056 -10.7871 80.3611 -10.6597C80.6857 -10.6051 80.9951 -10.5535 81.2773 -10.508C80.9951 -10.4625 80.6857 -10.4109 80.3611 -10.3563C79.6056 -10.2289 78.7531 -10.0802 77.8763 -9.91944C76.4959 -9.67066 75.0518 -9.39155 73.8322 -9.11546C72.6217 -8.84241 71.5932 -8.56633 71.0714 -8.31755C70.5101 -8.05361 70.0307 -7.54089 69.6303 -6.96142C69.2268 -6.37588 68.8809 -5.69326 68.6048 -5.05008C68.5047 -4.82254 68.4137 -4.595 68.3318 -4.38263C68.2134 -4.07621 68.1133 -3.79103 68.0284 -3.54225C67.8858 -3.96699 67.6947 -4.49792 67.455 -5.05008C67.1759 -5.69326 66.833 -6.37588 66.4295 -6.96142C66.026 -7.54089 65.5467 -8.05361 64.9885 -8.31755C64.4636 -8.56633 63.4381 -8.84241 62.2276 -9.11546C61.005 -9.39155 59.5609 -9.67066 58.1805 -9.91944C57.3006 -10.0802 56.4451 -10.2289 55.6896 -10.3563C55.368 -10.4109 55.0647 -10.4625 54.7825 -10.508C55.0647 -10.5535 55.3711 -10.6051 55.6987 -10.6597ZM53.8177 -10.3563C53.8177 -10.3563 53.8299 -10.3533 53.836 -10.3533C56.4056 -9.94067 63.2773 -8.79084 64.858 -8.04451C66.3992 -7.31334 67.4823 -4.29161 67.8706 -3.04773C67.9738 -2.714 68.0284 -2.5077 68.0284 -2.5077V19.679H37.9931V-10.3563H53.8177ZM37.6897 -10.3563V19.679H21.6982C21.6588 19.6729 21.6193 19.6668 21.5799 19.6577C21.5799 19.6577 21.5768 19.6608 21.5738 19.6577C21.5253 19.6517 21.4737 19.6426 21.4191 19.6335L21.3099 19.6153C21.1824 19.594 21.049 19.5728 20.9094 19.5485C20.8882 19.5485 20.8669 19.5424 20.8457 19.5394C20.697 19.5151 20.5453 19.4909 20.3845 19.4636C20.3512 19.4575 20.3148 19.4514 20.2814 19.4454C20.1449 19.4241 20.0053 19.3999 19.8597 19.3756C19.8597 19.3756 19.8536 19.3756 19.8475 19.3726C19.6261 19.3361 19.3925 19.2967 19.1558 19.2542C19.1407 19.2542 19.1255 19.2512 19.1133 19.2482C18.9192 19.2148 18.722 19.1814 18.5217 19.145C18.4884 19.1389 18.455 19.1329 18.4216 19.1268C18.0909 19.0692 17.7511 19.0085 17.4053 18.9448C17.3719 18.9387 17.3355 18.9326 17.3021 18.9266C17.1626 18.9023 17.026 18.875 16.8865 18.8507C16.8804 18.8507 16.8744 18.8507 16.8652 18.8477C16.6559 18.8113 16.4435 18.7718 16.2342 18.7294C16.1068 18.7051 15.9794 18.6808 15.8519 18.6566C15.8489 18.6566 15.8459 18.6566 15.8428 18.6535C15.6699 18.6232 15.497 18.5898 15.3271 18.5534C15.2816 18.5473 15.233 18.5382 15.1875 18.5261C15.1481 18.52 15.1117 18.5109 15.0722 18.5018C14.9054 18.4715 14.7385 18.4351 14.5747 18.4017C14.5747 18.4017 14.5727 18.4007 14.5686 18.3987C14.4017 18.3683 14.2379 18.3319 14.0771 18.2955C13.9133 18.2622 13.7555 18.2288 13.6008 18.1924C13.4734 18.1651 13.349 18.1378 13.2276 18.1105C12.5602 17.9588 11.9686 17.8071 11.4953 17.6645C11.4498 17.6523 11.4104 17.6372 11.3679 17.625C11.3345 17.6159 11.3011 17.6038 11.2708 17.5947C11.2223 17.5795 11.1767 17.5644 11.1343 17.5492C10.9522 17.4855 10.7975 17.4248 10.6731 17.3672C10.6246 17.3429 10.576 17.3186 10.5275 17.2913C10.485 17.267 10.4456 17.2428 10.4061 17.2124C10.3697 17.1912 10.3364 17.1669 10.303 17.1427C10.2545 17.1063 10.2059 17.0698 10.1574 17.0274C10.0937 16.9758 10.0299 16.9182 9.96927 16.8575C9.91769 16.8059 9.86308 16.7513 9.81454 16.6936C9.766 16.6451 9.72049 16.5905 9.67498 16.5359C9.56273 16.4024 9.45654 16.2598 9.35339 16.1111C9.30485 16.0414 9.25631 15.9686 9.2108 15.8957C9.16226 15.8229 9.11675 15.7471 9.07124 15.6712C8.98023 15.5226 8.89528 15.3648 8.81033 15.2071C8.76786 15.1282 8.72842 15.0493 8.68898 14.9704C8.6101 14.8096 8.53122 14.6488 8.46144 14.4911C8.38862 14.3303 8.31885 14.1725 8.25513 14.0147C8.19142 13.86 8.13074 13.7053 8.0731 13.5566C8.0549 13.5051 8.03366 13.4535 8.01546 13.4019C8.00636 13.3807 8.00029 13.3594 7.99119 13.3382C7.96388 13.2654 7.93961 13.1956 7.91534 13.1289C7.89107 13.0591 7.86983 12.9923 7.84556 12.9286C7.83343 12.8952 7.82129 12.8649 7.81219 12.8315C7.78185 12.7375 7.75151 12.6465 7.72421 12.5646C7.70297 12.4948 7.68173 12.4311 7.66353 12.3704C7.6605 12.3582 7.65746 12.3491 7.65443 12.34V-10.3563H37.6897ZM6.92933 25.2886C6.65022 24.6454 6.30739 23.9628 5.90389 23.3773C5.50038 22.7978 5.02103 22.2851 4.4628 22.0211C3.93794 21.7723 2.90946 21.4963 1.70198 21.2232C0.47933 20.9471 -0.964788 20.668 -2.3452 20.4192C-3.22502 20.2584 -4.08057 20.1098 -4.836 19.9824C-4.99376 19.9551 -5.14546 19.9308 -5.28805 19.9065C-4.87241 19.8367 -4.41733 19.7609 -3.93495 19.679H-4.8269C-4.0745 19.5515 -3.22199 19.4029 -2.3452 19.2451C-0.964788 18.9964 0.47933 18.7142 1.70198 18.4381C2.90946 18.1651 3.93794 17.889 4.4628 17.6432C5.02103 17.3763 5.50038 16.8635 5.90389 16.2841C6.30739 15.7016 6.65022 15.0159 6.92933 14.3727C7.09316 13.9965 7.23272 13.6294 7.35104 13.3018V13.4535C7.40868 13.2987 7.45723 13.1531 7.50274 13.0196C7.54824 13.1531 7.59982 13.2987 7.65443 13.4504V13.3018C7.77275 13.6294 7.91534 13.9965 8.07917 14.3727C8.35525 15.0159 8.70111 15.7016 9.10462 16.2841C9.50508 16.8635 9.98444 17.3763 10.5427 17.6432C11.0675 17.889 12.096 18.1651 13.3035 18.4381C14.5261 18.7142 15.9703 18.9964 17.3507 19.2451C18.2275 19.4029 19.08 19.5515 19.8354 19.679H18.9404C19.4228 19.7609 19.8779 19.8367 20.2966 19.9065C20.1479 19.9308 19.9932 19.9551 19.8354 19.9824C19.08 20.1098 18.2275 20.2584 17.3507 20.4192C15.9703 20.668 14.5261 20.9471 13.3035 21.2232C12.096 21.4963 11.0675 21.7723 10.5457 22.0211C9.98444 22.2851 9.50508 22.7978 9.10462 23.3773C8.70111 23.9628 8.35525 24.6454 8.07917 25.2886C7.91534 25.6648 7.77275 26.0319 7.65443 26.3596C7.59982 26.5143 7.54824 26.6599 7.50274 26.7964C7.45723 26.6599 7.40565 26.5143 7.35104 26.3596C7.23272 26.0319 7.09316 25.6648 6.92933 25.2886ZM7.65443 27.3213C7.65443 27.3213 7.6605 27.3031 7.66353 27.2909C7.66353 27.2788 7.6696 27.2667 7.67263 27.2545C7.68173 27.2303 7.6878 27.206 7.6969 27.1787C7.72421 27.0998 7.75151 27.0118 7.78185 26.9208C7.79399 26.8905 7.80309 26.8601 7.81219 26.8298C7.83343 26.7661 7.85466 26.7024 7.87893 26.6356C7.89107 26.6023 7.90321 26.5689 7.91534 26.5325C7.94568 26.4475 7.97905 26.3595 8.01242 26.2685C8.03366 26.2139 8.0549 26.1593 8.0731 26.1047C8.11861 25.9924 8.16108 25.8802 8.20659 25.7619C8.25513 25.6466 8.30367 25.5283 8.35525 25.4099C8.44627 25.2036 8.54032 24.9973 8.64347 24.788C8.67381 24.7243 8.70415 24.6636 8.73752 24.5999C8.76786 24.5362 8.80123 24.4755 8.8346 24.4118C8.89224 24.3026 8.95292 24.1903 9.01663 24.0841C9.01967 24.0781 9.0227 24.072 9.02877 24.0659C9.08338 23.9689 9.14102 23.8748 9.2017 23.7808C9.2017 23.7747 9.20777 23.7686 9.2108 23.7656C9.27148 23.6715 9.33216 23.5805 9.39283 23.4956C9.3989 23.4865 9.40194 23.4804 9.408 23.4743C9.47475 23.3833 9.54149 23.2953 9.60824 23.2104C9.63554 23.177 9.66285 23.1437 9.68712 23.1133C9.69318 23.1042 9.69925 23.0981 9.70532 23.089C9.76297 23.0223 9.82364 22.9555 9.88129 22.8949C9.89645 22.8797 9.90859 22.8676 9.92073 22.8554C9.94196 22.8342 9.9632 22.813 9.98444 22.7917C10.0785 22.6977 10.1756 22.6127 10.2757 22.5399C10.3091 22.5126 10.3424 22.4883 10.3788 22.4671C10.3879 22.458 10.397 22.4519 10.4061 22.4489C10.4456 22.4216 10.485 22.3943 10.5275 22.37C10.576 22.3427 10.6246 22.3184 10.6731 22.2942C10.7975 22.2365 10.9522 22.1758 11.1343 22.1121C11.2071 22.0879 11.286 22.0606 11.3679 22.0363C11.4104 22.0242 11.4498 22.012 11.4953 21.9968C11.7957 21.9058 12.1446 21.8118 12.5299 21.7177C12.6391 21.6904 12.7513 21.6631 12.8696 21.6358C12.9303 21.6206 12.988 21.6085 13.0456 21.5933C13.1518 21.5691 13.261 21.5448 13.3702 21.5205C13.4461 21.5023 13.525 21.4872 13.6008 21.469C13.6797 21.4507 13.7586 21.4356 13.8374 21.4174C13.9163 21.3992 13.9952 21.384 14.0771 21.3658C14.1985 21.3415 14.3198 21.3142 14.4442 21.29C14.6505 21.2444 14.8599 21.202 15.0722 21.1595C15.1572 21.1413 15.2421 21.1261 15.3271 21.1079C15.3605 21.1019 15.3938 21.0958 15.4242 21.0897C15.5546 21.0654 15.682 21.0381 15.8125 21.0139C16.1037 20.9593 16.398 20.9016 16.6923 20.847C16.8197 20.8227 16.9472 20.8015 17.0746 20.7772C17.2718 20.7408 17.469 20.7044 17.6632 20.671C17.7481 20.6559 17.83 20.6407 17.9119 20.6255C18.0818 20.5952 18.2517 20.5649 18.4216 20.5345C18.5066 20.5194 18.5885 20.5042 18.6704 20.492C19.0163 20.4314 19.3561 20.3737 19.6776 20.3191C19.802 20.2979 19.9204 20.2766 20.0387 20.2584C20.0478 20.2554 20.0599 20.2554 20.069 20.2524C20.157 20.2372 20.245 20.2251 20.3299 20.2099C20.4664 20.1856 20.5969 20.1644 20.7243 20.1432C20.8457 20.1219 20.961 20.1037 21.0732 20.0855C21.0945 20.0825 21.1127 20.0794 21.1309 20.0764C21.1855 20.0673 21.237 20.0582 21.2917 20.0491C21.3432 20.043 21.3948 20.0339 21.4434 20.0248C21.5344 20.0097 21.6193 19.9975 21.6982 19.9854C21.7043 19.9854 21.7073 19.9824 21.7134 19.9824H37.6897V50.0176H7.65443V27.3213ZM7.65443 80.3563V50.321H37.6897V73.1812C37.6897 73.1812 37.6867 73.1964 37.6836 73.2025C37.2953 74.4463 36.2122 77.4681 34.671 78.1962C33.2542 78.8667 27.593 79.8588 24.5804 80.3563H7.65443ZM47.6893 81.2483C46.3089 81.497 44.8648 81.7762 43.6452 82.0522C42.4347 82.3253 41.4062 82.6014 40.8844 82.8502C40.3231 83.1141 39.8438 83.6268 39.4433 84.2063C39.0398 84.7918 38.6939 85.4744 38.4178 86.1207C38.254 86.4969 38.1114 86.864 37.9931 87.1916C37.9385 87.3463 37.8869 87.492 37.8414 87.6255C37.7959 87.492 37.7474 87.3463 37.6897 87.1916C37.5714 86.864 37.4318 86.4969 37.268 86.1207C36.9889 85.4744 36.6461 84.7918 36.2426 84.2063C35.8391 83.6268 35.3597 83.1141 34.8015 82.8502C34.2766 82.6014 33.2481 82.3253 32.0407 82.0522C30.818 81.7762 29.3739 81.497 27.9935 81.2483C26.7374 81.0207 25.533 80.8144 24.5955 80.6597C25.1265 80.5717 25.7393 80.4686 26.4037 80.3563C26.9104 80.2683 27.4474 80.1743 27.9935 80.0742C29.3739 79.8254 30.818 79.5432 32.0407 79.2672C33.2481 78.9971 34.2766 78.7211 34.8015 78.4723C35.3597 78.2053 35.8391 77.6956 36.2426 77.1131C36.6461 76.5306 36.9889 75.848 37.268 75.2018C37.4318 74.8256 37.5714 74.4585 37.6897 74.1308C37.7474 73.9761 37.7959 73.8305 37.8414 73.697C37.8869 73.8305 37.9385 73.9761 37.9931 74.1308C38.1114 74.4585 38.254 74.8256 38.4178 75.2018C38.6939 75.848 39.0398 76.5306 39.4433 77.1131C39.8438 77.6926 40.3231 78.2053 40.8813 78.4723C41.4062 78.7211 42.4347 78.9971 43.6452 79.2672C44.8648 79.5432 46.3089 79.8254 47.6893 80.0742C48.2354 80.1743 48.7724 80.2683 49.2791 80.3563C49.9435 80.4686 50.5594 80.5717 51.0903 80.6597C50.1498 80.8144 48.9454 81.0207 47.6893 81.2483ZM51.1024 80.3563C48.0868 79.8588 42.4256 78.8667 41.0118 78.1962C39.4736 77.4681 38.3905 74.4463 38.0022 73.2025C37.9992 73.1934 37.9961 73.1812 37.9931 73.1721V50.321H68.0284V80.3563H51.1024ZM68.3318 80.3563V50.321H98.3671V80.3563H68.3318ZM98.6704 80.3563V50.321H115.73C118.736 50.8156 124.419 51.8107 125.839 52.4811C127.219 53.1365 128.229 55.6242 128.706 57.0319V80.3563H98.6704ZM129.009 80.3563V58.018C129.009 58.018 129.064 57.8116 129.17 57.4779C129.558 56.234 130.641 53.2123 132.18 52.4811C133.596 51.8107 139.279 50.8156 142.288 50.321H159.044V80.3563H129.009ZM159.348 80.3563V50.321H189.383V80.3563H159.348ZM189.686 80.3563V50.321H219.722V80.3563H189.686ZM250.789 75.0501C251.065 75.6933 251.41 76.3789 251.814 76.9614C252.214 77.5409 252.694 78.0536 253.252 78.3206C253.777 78.5663 254.805 78.8424 256.013 79.1155C257.236 79.3915 258.68 79.6737 260.06 79.9225C260.937 80.0802 261.789 80.2289 262.545 80.3563C262.869 80.4109 263.179 80.4625 263.461 80.508C263.179 80.5535 262.869 80.6051 262.545 80.6597C261.789 80.7871 260.937 80.9358 260.06 81.0966C258.68 81.3454 257.236 81.6245 256.013 81.9006C254.805 82.1736 253.777 82.4497 253.255 82.6985C252.694 82.9624 252.214 83.4751 251.814 84.0546C251.41 84.6401 251.065 85.3228 250.789 85.9659C250.625 86.3421 250.482 86.7092 250.364 87.0369C250.309 87.1916 250.258 87.3372 250.212 87.4738C250.167 87.3372 250.115 87.1916 250.06 87.0369C249.942 86.7092 249.803 86.3421 249.639 85.9659C249.36 85.3228 249.017 84.6401 248.613 84.0546C248.21 83.4751 247.73 82.9624 247.172 82.6985C246.647 82.4497 245.619 82.1736 244.411 81.9006C243.189 81.6245 241.745 81.3454 240.364 81.0966C239.484 80.9358 238.629 80.7871 237.873 80.6597C237.552 80.6051 237.248 80.5535 236.966 80.508C237.248 80.4625 237.555 80.4109 237.882 80.3563C238.635 80.2289 239.487 80.0802 240.364 79.9225C241.745 79.6737 243.189 79.3915 244.411 79.1155C245.619 78.8424 246.647 78.5663 247.172 78.3206C247.73 78.0536 248.21 77.5409 248.613 76.9614C249.017 76.3789 249.36 75.6933 249.639 75.0501C249.803 74.6739 249.942 74.3068 250.06 73.9791C250.118 73.8244 250.167 73.6788 250.212 73.5423C250.258 73.6788 250.309 73.8244 250.364 73.9791C250.482 74.3068 250.625 74.6739 250.789 75.0501ZM250.06 73.0265C250.06 73.0265 250.057 73.0417 250.054 73.0477C250.042 73.0872 250.03 73.1296 250.015 73.1721C249.991 73.251 249.963 73.3329 249.933 73.4179C249.915 73.4785 249.891 73.5423 249.869 73.606C249.86 73.6363 249.848 73.6697 249.836 73.703C249.827 73.7364 249.815 73.7728 249.799 73.8062C249.79 73.8396 249.775 73.876 249.763 73.9093C249.663 74.1885 249.545 74.4949 249.411 74.8104C249.396 74.8498 249.378 74.8893 249.36 74.9287C249.329 75.0076 249.293 75.0865 249.253 75.1684C249.22 75.2473 249.184 75.3262 249.141 75.4081C249.105 75.487 249.065 75.5689 249.026 75.6478C248.989 75.7266 248.947 75.8055 248.905 75.8844C248.865 75.9602 248.823 76.0361 248.78 76.1119C248.738 76.1908 248.692 76.2727 248.644 76.3486C248.598 76.4244 248.553 76.5003 248.504 76.5731C248.416 76.7126 248.322 76.8492 248.228 76.9766C248.167 77.0585 248.104 77.1374 248.04 77.2132C247.994 77.2678 247.949 77.3224 247.9 77.371C247.852 77.4286 247.797 77.4832 247.746 77.5348C247.685 77.5955 247.621 77.6531 247.557 77.7047C247.509 77.7472 247.46 77.7836 247.412 77.82C247.378 77.8443 247.345 77.8685 247.309 77.8898C247.269 77.9201 247.23 77.9444 247.187 77.9687C247.139 77.996 247.09 78.0202 247.042 78.0445C246.917 78.1021 246.763 78.1628 246.581 78.2265C246.538 78.2417 246.493 78.2569 246.444 78.272C246.38 78.2933 246.317 78.3145 246.247 78.3327C246.18 78.354 246.107 78.3752 246.034 78.3964C245.937 78.4268 245.834 78.4541 245.728 78.4814C245.625 78.5117 245.519 78.539 245.409 78.5663C245.379 78.5754 245.346 78.5815 245.315 78.5906C245.158 78.63 244.997 78.6695 244.827 78.7089C244.715 78.7362 244.602 78.7605 244.487 78.7878C244.305 78.8303 244.117 78.8727 243.926 78.9122C243.911 78.9152 243.893 78.9213 243.877 78.9213C243.638 78.9759 243.392 79.0275 243.14 79.0791C242.937 79.1215 242.734 79.164 242.527 79.2034C242.482 79.2156 242.433 79.2247 242.388 79.2308C242.215 79.2641 242.042 79.3005 241.869 79.3309C241.742 79.3582 241.611 79.3824 241.481 79.4067C241.271 79.4492 241.059 79.4886 240.85 79.525C240.84 79.5281 240.834 79.5281 240.828 79.5281C240.689 79.5523 240.552 79.5796 240.413 79.6039C240.379 79.61 240.343 79.616 240.31 79.6221C239.964 79.6858 239.624 79.7465 239.293 79.8041C239.26 79.8102 239.226 79.8163 239.193 79.8223C238.993 79.8588 238.796 79.8921 238.602 79.9255C238.589 79.9285 238.574 79.9316 238.559 79.9316C238.322 79.9741 238.089 80.0135 237.867 80.0499C237.861 80.0529 237.858 80.0529 237.855 80.0529C237.71 80.0772 237.57 80.1015 237.433 80.1227C237.397 80.1288 237.364 80.1348 237.33 80.1409C237.236 80.1561 237.142 80.1712 237.051 80.1864C236.866 80.2168 236.693 80.2471 236.532 80.2714C236.45 80.2865 236.372 80.2987 236.296 80.3108C236.244 80.3199 236.193 80.329 236.144 80.3351C236.141 80.3381 236.138 80.3381 236.135 80.3351C236.096 80.3442 236.056 80.3503 236.02 80.3563H220.025V50.321H250.06V73.0265ZM250.06 50.0176H220.025V27.3213C220.025 27.3213 220.031 27.3031 220.034 27.2909C220.034 27.2788 220.04 27.2667 220.043 27.2545C220.052 27.2303 220.059 27.206 220.068 27.1787C220.095 27.0998 220.122 27.0118 220.153 26.9208C220.165 26.8905 220.174 26.8601 220.183 26.8298C220.204 26.7661 220.225 26.7024 220.25 26.6356C220.262 26.6023 220.274 26.5689 220.286 26.5325C220.316 26.4475 220.35 26.3595 220.383 26.2685C220.404 26.2139 220.426 26.1593 220.444 26.1047C220.489 25.9924 220.532 25.8802 220.577 25.7619C220.626 25.6466 220.674 25.5283 220.726 25.4099C220.817 25.2036 220.911 24.9973 221.014 24.788C221.045 24.7243 221.075 24.6636 221.108 24.5999C221.139 24.5362 221.172 24.4755 221.205 24.4118C221.263 24.3026 221.324 24.1903 221.387 24.0841C221.39 24.0781 221.393 24.072 221.399 24.0659C221.454 23.9689 221.512 23.8748 221.572 23.7808C221.572 23.7747 221.578 23.7686 221.582 23.7656C221.642 23.6715 221.703 23.5805 221.764 23.4956C221.77 23.4865 221.773 23.4804 221.779 23.4743C221.845 23.3833 221.912 23.2953 221.979 23.2104C222.006 23.177 222.034 23.1437 222.058 23.1133C222.064 23.1042 222.07 23.0981 222.076 23.089C222.134 23.0223 222.194 22.9555 222.252 22.8949C222.267 22.8797 222.279 22.8676 222.291 22.8554C222.313 22.8342 222.334 22.813 222.355 22.7917C222.449 22.6977 222.546 22.6127 222.646 22.5399C222.68 22.5126 222.713 22.4883 222.75 22.4671C222.759 22.458 222.768 22.4519 222.777 22.4489C222.816 22.4216 222.856 22.3943 222.898 22.37C222.947 22.3427 222.995 22.3184 223.044 22.2942C223.168 22.2365 223.323 22.1758 223.505 22.1121C223.578 22.0879 223.657 22.0606 223.739 22.0363C223.781 22.0242 223.82 22.012 223.866 21.9968C224.166 21.9058 224.515 21.8118 224.901 21.7177C225.01 21.6904 225.122 21.6631 225.24 21.6358C225.301 21.6206 225.359 21.6085 225.416 21.5933C225.523 21.5691 225.632 21.5448 225.741 21.5205C225.817 21.5023 225.896 21.4872 225.971 21.469C226.05 21.4507 226.129 21.4356 226.208 21.4174C226.287 21.3992 226.366 21.384 226.448 21.3658C226.569 21.3415 226.691 21.3142 226.815 21.29C227.021 21.2444 227.231 21.202 227.443 21.1595C227.528 21.1413 227.613 21.1261 227.698 21.1079C227.731 21.1019 227.765 21.0958 227.795 21.0897C227.925 21.0654 228.053 21.0381 228.183 21.0139C228.474 20.9593 228.769 20.9016 229.063 20.847C229.19 20.8227 229.318 20.8015 229.445 20.7772C229.642 20.7408 229.84 20.7044 230.034 20.671C230.119 20.6559 230.201 20.6407 230.283 20.6255C230.453 20.5952 230.622 20.5649 230.792 20.5345C230.877 20.5194 230.959 20.5042 231.041 20.492C231.387 20.4314 231.727 20.3737 232.048 20.3191C232.173 20.2979 232.291 20.2766 232.409 20.2584C232.418 20.2554 232.431 20.2554 232.44 20.2524C232.528 20.2372 232.616 20.2251 232.701 20.2099C232.837 20.1856 232.968 20.1644 233.095 20.1432C233.216 20.1219 233.332 20.1037 233.444 20.0855C233.465 20.0825 233.483 20.0794 233.502 20.0764C233.556 20.0673 233.608 20.0582 233.662 20.0491C233.714 20.043 233.766 20.0339 233.814 20.0248C233.905 20.0097 233.99 19.9975 234.069 19.9854C234.075 19.9854 234.078 19.9824 234.084 19.9824H250.06V50.0176ZM250.06 19.679H234.069C234.029 19.6729 233.99 19.6668 233.951 19.6577C233.951 19.6577 233.948 19.6608 233.945 19.6577C233.896 19.6517 233.844 19.6426 233.79 19.6335L233.681 19.6153C233.553 19.594 233.42 19.5728 233.28 19.5485C233.259 19.5485 233.238 19.5424 233.216 19.5394C233.068 19.5151 232.916 19.4909 232.755 19.4636C232.722 19.4575 232.685 19.4514 232.652 19.4454C232.516 19.4241 232.376 19.3999 232.23 19.3756C232.23 19.3756 232.224 19.3756 232.218 19.3726C231.997 19.3361 231.763 19.2967 231.527 19.2542C231.511 19.2542 231.496 19.2512 231.484 19.2482C231.29 19.2148 231.093 19.1814 230.892 19.145C230.859 19.1389 230.826 19.1329 230.792 19.1268C230.462 19.0692 230.122 19.0085 229.776 18.9448C229.743 18.9387 229.706 18.9326 229.673 18.9266C229.533 18.9023 229.397 18.875 229.257 18.8507C229.251 18.8507 229.245 18.8507 229.236 18.8477C229.027 18.8113 228.814 18.7718 228.605 18.7294C228.477 18.7051 228.35 18.6808 228.223 18.6566C228.22 18.6566 228.217 18.6566 228.214 18.6535C228.041 18.6232 227.868 18.5898 227.698 18.5534C227.652 18.5473 227.604 18.5382 227.558 18.5261C227.519 18.52 227.482 18.5109 227.443 18.5018C227.276 18.4715 227.109 18.4351 226.945 18.4017C226.945 18.4017 226.943 18.4007 226.939 18.3987C226.772 18.3683 226.609 18.3319 226.448 18.2955C226.284 18.2622 226.126 18.2288 225.971 18.1924C225.844 18.1651 225.72 18.1378 225.598 18.1105C224.931 17.9588 224.339 17.8071 223.866 17.6645C223.82 17.6523 223.781 17.6372 223.739 17.625C223.705 17.6159 223.672 17.6038 223.641 17.5947C223.593 17.5795 223.547 17.5644 223.505 17.5492C223.323 17.4855 223.168 17.4248 223.044 17.3672C222.995 17.3429 222.947 17.3186 222.898 17.2913C222.856 17.267 222.816 17.2428 222.777 17.2124C222.74 17.1912 222.707 17.1669 222.674 17.1427C222.625 17.1063 222.577 17.0698 222.528 17.0274C222.464 16.9758 222.401 16.9182 222.34 16.8575C222.288 16.8059 222.234 16.7513 222.185 16.6936C222.137 16.6451 222.091 16.5905 222.046 16.5359C221.933 16.4024 221.827 16.2598 221.724 16.1111C221.676 16.0414 221.627 15.9686 221.582 15.8957C221.533 15.8229 221.487 15.7471 221.442 15.6712C221.351 15.5226 221.266 15.3648 221.181 15.2071C221.139 15.1282 221.099 15.0493 221.06 14.9704C220.981 14.8096 220.902 14.6488 220.832 14.4911C220.759 14.3303 220.69 14.1725 220.626 14.0147C220.562 13.86 220.501 13.7053 220.444 13.5566C220.426 13.5051 220.404 13.4535 220.386 13.4019C220.377 13.3807 220.371 13.3594 220.362 13.3382C220.335 13.2654 220.31 13.1956 220.286 13.1289C220.262 13.0591 220.241 12.9923 220.216 12.9286C220.204 12.8952 220.192 12.8649 220.183 12.8315C220.153 12.7375 220.122 12.6465 220.095 12.5646C220.074 12.4948 220.052 12.4311 220.034 12.3704C220.031 12.3582 220.028 12.3491 220.025 12.34V-10.3563H250.06V19.679Z" fill="url(#paint0_radial_6_240)"/>
</g>
<defs>
<radialGradient id="paint0_radial_6_240" cx="0" cy="0" r="1" gradientUnits="userSpaceOnUse" gradientTransform="translate(3.67704 -2.15475) rotate(39.7291) scale(176.797 526.57)">
<stop offset="0.326738" stop-color="white"/>
<stop offset="1" stop-opacity="0"/>
</radialGradient>
</defs>
</svg>
